<svg width="22" height="22" viewBox="0 0 22 22" fill="none" xmlns="http://www.w3.org/2000/svg">
<path d="M11.0572 19.4766C11.4312 20.5513 12.8524 21.0463 13.7302 20.1256C13.9106 19.9386 14.0888 19.7362 14.2098 19.5547C14.5618 19.0267 14.7103 18.3304 14.7642 17.6517C14.8192 16.962 14.7818 16.2206 14.7114 15.5485C14.6399 14.8753 14.5343 14.2571 14.4463 13.8072L14.4353 13.75H15.4066C15.89 13.7501 16.3676 13.644 16.8055 13.4391C17.2433 13.2343 17.6309 12.9357 17.9406 12.5646C18.2504 12.1934 18.4748 11.7587 18.5981 11.2913C18.7213 10.8238 18.7403 10.335 18.6538 9.85934L17.9014 5.72224C17.7788 5.04714 17.5171 4.40491 17.133 3.83631C16.749 3.26772 16.2509 2.78518 15.6704 2.41933C15.0899 2.05347 14.4397 1.8123 13.7611 1.71112C13.0824 1.60993 12.3902 1.65094 11.7282 1.83155L5.5682 3.51124C5.07557 3.64577 4.63012 3.91481 4.28177 4.28822C3.93342 4.66163 3.69593 5.12467 3.5959 5.62544L3.2076 7.56694C2.9018 9.09484 4.07 10.3818 5.3119 10.8724C5.6486 10.9976 5.96118 11.18 6.2359 11.4114C8.1136 13.0768 8.7934 14.4067 9.9594 16.7464C10.3488 17.5274 10.7492 18.59 11.0572 19.4766ZM13.2187 13.3331V13.3353L13.2209 13.343L13.2286 13.3771C13.2795 13.5902 13.3257 13.8044 13.3672 14.0195C13.4508 14.4463 13.5509 15.0315 13.6169 15.664C13.684 16.2987 13.7159 16.9664 13.6675 17.5648C13.6191 18.1764 13.4915 18.6483 13.2935 18.9453C13.185 19.0948 13.0651 19.2357 12.9349 19.3666C12.716 19.5954 12.2441 19.5426 12.0967 19.1158C11.7854 18.2204 11.3663 17.1028 10.9439 16.2558C9.7702 13.9007 9.0123 12.4036 6.9663 10.5886C6.5923 10.2564 6.1479 10.0199 5.7167 9.84944C4.7487 9.46664 4.125 8.58664 4.2867 7.78254L4.6739 5.84104C4.73406 5.54045 4.87677 5.26257 5.08602 5.03855C5.29528 4.81453 5.5628 4.65323 5.8586 4.57274L12.0186 2.89304C12.5333 2.75272 13.0716 2.72091 13.5992 2.79962C14.1269 2.87832 14.6324 3.06584 15.0838 3.35026C15.5351 3.63469 15.9225 4.00981 16.2212 4.45185C16.5199 4.89388 16.7235 5.39317 16.819 5.91804L17.5714 10.0562C17.6291 10.3733 17.6164 10.6992 17.5343 11.0109C17.4521 11.3225 17.3025 11.6123 17.096 11.8597C16.8895 12.1072 16.6311 12.3062 16.3392 12.4428C16.0473 12.5793 15.7289 12.6501 15.4066 12.65H13.7511C13.6676 12.6502 13.5853 12.6694 13.5104 12.7061C13.4355 12.7428 13.3698 12.7961 13.3185 12.8619C13.2672 12.9278 13.2316 13.0044 13.2143 13.086C13.197 13.1677 13.1985 13.2522 13.2187 13.3331Z" fill="#96262A"/>
</svg>
