<svg width="22" height="22" viewBox="0 0 22 22" fill="none" xmlns="http://www.w3.org/2000/svg">
<path d="M11.0572 2.52336C11.4312 1.44866 12.8524 0.953658 13.7302 1.87436C13.9106 2.06136 14.0888 2.26376 14.2098 2.44526C14.5618 2.97326 14.7103 3.66956 14.7642 4.34826C14.8192 5.03796 14.7818 5.77936 14.7114 6.45146C14.6399 7.12466 14.5343 7.74286 14.4463 8.19276L14.4353 8.24996H15.4066C15.89 8.24988 16.3676 8.35603 16.8055 8.56088C17.2433 8.76574 17.6309 9.06429 17.9406 9.43545C18.2504 9.8066 18.4748 10.2413 18.5981 10.7087C18.7213 11.1762 18.7403 11.665 18.6538 12.1407L17.9014 16.2778C17.7788 16.9529 17.5171 17.5951 17.133 18.1637C16.749 18.7323 16.2509 19.2148 15.6704 19.5807C15.0899 19.9465 14.4397 20.1877 13.7611 20.2889C13.0824 20.3901 12.3902 20.3491 11.7282 20.1685L5.5682 18.4888C5.07557 18.3542 4.63012 18.0852 4.28177 17.7118C3.93342 17.3384 3.69593 16.8753 3.5959 16.3746L3.2076 14.4331C2.9018 12.9052 4.07 11.6182 5.3119 11.1276C5.6486 11.0024 5.96118 10.82 6.2359 10.5886C8.1136 8.92316 8.7934 7.59326 9.9594 5.25356C10.3488 4.47256 10.7492 3.40996 11.0572 2.52336ZM13.2187 8.66686V8.66466L13.2209 8.65696L13.2286 8.62286C13.2795 8.40976 13.3257 8.19557 13.3672 7.98046C13.4508 7.55366 13.5509 6.96846 13.6169 6.33596C13.684 5.70126 13.7159 5.03356 13.6675 4.43516C13.6191 3.82356 13.4915 3.35166 13.2935 3.05466C13.185 2.90519 13.0651 2.76434 12.9349 2.63336C12.716 2.40456 12.2441 2.45736 12.0967 2.88416C11.7854 3.77956 11.3663 4.89716 10.9439 5.74416C9.7702 8.09926 9.0123 9.59636 6.9663 11.4114C6.5923 11.7436 6.1479 11.9801 5.7167 12.1506C4.7487 12.5334 4.125 13.4134 4.2867 14.2175L4.6739 16.159C4.73406 16.4595 4.87677 16.7374 5.08602 16.9615C5.29528 17.1855 5.5628 17.3468 5.8586 17.4273L12.0186 19.107C12.5333 19.2473 13.0716 19.2791 13.5992 19.2004C14.1269 19.1217 14.6324 18.9342 15.0838 18.6497C15.5351 18.3653 15.9225 17.9902 16.2212 17.5482C16.5199 17.1061 16.7235 16.6068 16.819 16.082L17.5714 11.9438C17.6291 11.6267 17.6164 11.3008 17.5343 10.9891C17.4521 10.6775 17.3025 10.3877 17.096 10.1403C16.8895 9.89285 16.6311 9.69381 16.3392 9.55724C16.0473 9.42067 15.7289 9.34991 15.4066 9.34996H13.7511C13.6676 9.34977 13.5853 9.33059 13.5104 9.29388C13.4355 9.25717 13.3698 9.20388 13.3185 9.13806C13.2672 9.07224 13.2316 8.99561 13.2143 8.91397C13.197 8.83233 13.1985 8.74783 13.2187 8.66686Z" fill="#0F2E74"/>
</svg>
